<svg id="레이어_1" data-name="레이어 1" xmlns="http://www.w3.org/2000/svg" width="99.54157" height="26.27184" viewBox="0 0 99.54157 26.27184"><defs><style>.cls-1{fill:#fff;}</style></defs><path class="cls-1" d="M1.84963,20.28113a5.3757,5.3757,0,0,1-1.874-1.12975l1.48927-2.413a6.95226,6.95226,0,0,0,3.46568.97549,1.82443,1.82443,0,0,0,1.21941-.28239.936.936,0,0,0,.37223-.74446,1.02493,1.02493,0,0,0-.25663-.66751,1.71559,1.71559,0,0,0-.796-.48784L3.90368,15.0182a15.30324,15.30324,0,0,1-2.11812-.8343A3.43247,3.43247,0,0,1,.50207,13.067,3.25929,3.25929,0,0,1,.00136,11.1674a4.87887,4.87887,0,0,1,.56478-2.272A4.48543,4.48543,0,0,1,2.32458,7.09829a5.41637,5.41637,0,0,1,2.99107-.706,8.799,8.799,0,0,1,2.47786.3979,12.54942,12.54942,0,0,1,2.523,1.14525l-1.53378,2.5322a6.35435,6.35435,0,0,0-3.18466-.94342,3.24226,3.24226,0,0,0-1.20549.19705,1.06285,1.06285,0,0,0-.59178.67594A1.07658,1.07658,0,0,0,3.991,11.53146a2.54457,2.54457,0,0,0,1.22582.50019c.274.068,1.53217.34616,1.99372.43717a4.61237,4.61237,0,0,1,2.46951,1.33,3.82068,3.82068,0,0,1,.89836,2.70834,3.75655,3.75655,0,0,1-.73157,2.2978,4.62466,4.62466,0,0,1-2.00253,1.51469,7.49783,7.49783,0,0,1-2.888.52631A8.04805,8.04805,0,0,1,1.84963,20.28113Z"/><path class="cls-1" d="M23.69666,20.88077l-4.67837-6.01484-1.7655,2.21523v3.79961h-3.6454V.16313h3.6454V11.94672l4.51264-5.55855,4.10377.00413-4.57789,5.66484,7.0682,8.82363Z"/><path class="cls-1" d="M38.172,7.10737a5.15661,5.15661,0,0,1,2.15643,1.91269,5.26194,5.26194,0,0,1,.77022,2.8497v9.011h-2.5972l-1.25359-2.07948a5.26019,5.26019,0,0,1-1.68148,1.50181,4.66532,4.66532,0,0,1-2.34933.57767,5.09555,5.09555,0,0,1-3.55552-1.21959,4.10594,4.10594,0,0,1-1.3479-3.19616,3.87674,3.87674,0,0,1,.74481-2.33611,4.79,4.79,0,0,1,2.1049-1.59181,8.93916,8.93916,0,0,1,3.1321-.56479,19.807,19.807,0,0,1,2.77275.08293s.00447-.08935,0-.18548a2.19468,2.19468,0,0,0-.89872-1.70724,3.53547,3.53547,0,0,0-2.18219-.60344A5.5656,5.5656,0,0,0,30.70785,10.675L29.18657,8.19847a8.65131,8.65131,0,0,1,2.606-1.33484,10.77691,10.77691,0,0,1,3.22159-.47133A7.0917,7.0917,0,0,1,38.172,7.10737Zm-1.874,10.0894a3.11855,3.11855,0,0,0,.82141-2.24644A12.51241,12.51241,0,0,0,34.809,14.6937a2.896,2.896,0,0,0-1.70725.46207,1.43672,1.43672,0,0,0-.65462,1.23229,1.54772,1.54772,0,0,0,.50037,1.2323,2.05929,2.05929,0,0,0,1.39908.4363A2.60837,2.60837,0,0,0,36.298,17.19677Z"/><path class="cls-1" d="M60.69771,4.15512a2.24476,2.24476,0,0,1-.65463-1.65589A2.25164,2.25164,0,0,1,60.71059.81776a2.28641,2.28641,0,0,1,1.6686-.65463,2.24475,2.24475,0,0,1,1.65606.65463,2.27679,2.27679,0,0,1,.65462,1.68147,2.23906,2.23906,0,0,1-2.31068,2.31052A2.27588,2.27588,0,0,1,60.69771,4.15512Zm-.321,2.23718h3.97928V20.88077H60.37666Z"/><path class="cls-1" d="M57.40079,9.83536A6.35606,6.35606,0,0,0,55.06987,7.3675a6.29267,6.29267,0,0,0-3.26545-.9752c-1.95689,0-3.30118.30479-4.23142,1.8076V8.197L46.47486,6.3923H43.92908V26.27184h3.64959V22.42918H47.573v-3.6669a4.70659,4.70659,0,0,0,4.23142,1.75477,6.14747,6.14747,0,0,0,3.26545-.8975,6.38144,6.38144,0,0,0,2.33092-2.51773,7.69621,7.69621,0,0,0,.85981-3.66442A7.42581,7.42581,0,0,0,57.40079,9.83536Zm-4.03108,6.32052a3.40456,3.40456,0,0,1-4.87524,0,3.75232,3.75232,0,0,1-.92147-2.43425v-.49919a3.78276,3.78276,0,0,1,.92147-2.45568,3.40456,3.40456,0,0,1,4.87524,0,3.8197,3.8197,0,0,1,.94,2.68206A3.85424,3.85424,0,0,1,53.36971,16.15588Z"/><path class="cls-1" d="M83.94561,13.87871a1.082,1.082,0,0,0-.95616.596v1.09076a1.10261,1.10261,0,0,0,.95616.596,1.1425,1.1425,0,0,0,0-2.28266Z"/><path class="cls-1" d="M95.53953,13.87871a1.1419,1.1419,0,1,0,.96725,1.68671V14.47466A1.09827,1.09827,0,0,0,95.53953,13.87871Z"/><polygon class="cls-1" points="73.926 14.486 75.49 14.486 74.702 12.45 73.926 14.486"/><path class="cls-1" d="M69.41452,9.01019V20.88075h30.127V9.01019Zm7.2334,8.51247-.54-1.42829H73.29621l-.54,1.42829H71.02424L73.701,10.57158h2.01348l2.66537,6.95108Zm3.80038,0H78.83993V11.02155L80.4483,9.85174Zm3.84587.12383a1.39293,1.39293,0,0,1-1.32714-.75393v3.48662H81.35866V12.49526H82.967v.28123a2.35512,2.35512,0,0,1,1.29364-.383,2.63235,2.63235,0,0,1,.0335,5.253Zm7.78245-.12383H90.45691V15.2842c0-.517.06759-1.40549-.60736-1.40549-.28122,0-.51728.19083-.80985.4948v3.14915H87.42025V11.02155L89.0397,9.85174v3.26164a1.42546,1.42546,0,0,1,1.33848-.71985c1.37205,0,1.69844,1.0914,1.69844,2.10323Zm6.06095,0H96.51818v-.25912a2.31868,2.31868,0,0,1-1.2823.383,2.63048,2.63048,0,0,1,0-5.253,2.31861,2.31861,0,0,1,1.2823.383V12.506h1.61939Z"/></svg>