<svg id="레이어_1" data-name="레이어 1" xmlns="http://www.w3.org/2000/svg" xmlns:xlink="http://www.w3.org/1999/xlink" viewBox="0 0 30.62 30.62"><defs><style>.cls-1{fill:url(#무제_그라디언트_31);}.cls-2{fill:#293fe6;}</style><radialGradient id="무제_그라디언트_31" cx="16.91" cy="17.38" fx="8.1617451582851" fy="7.57834141758612" r="15.31" gradientTransform="translate(-1.6 -2.56) scale(1 1.03)" gradientUnits="userSpaceOnUse"><stop offset="0.27" stop-color="#fff"/><stop offset="0.51" stop-color="#fbfbfb"/><stop offset="0.76" stop-color="#eee"/><stop offset="1" stop-color="#dbdcdc"/></radialGradient></defs><circle class="cls-1" cx="15.31" cy="15.31" r="15.31"/><path class="cls-2" d="M6,21.54a8.44,8.44,0,0,1-.82-3.28l4.27-1a10.7,10.7,0,0,0,2.72,4.86,2.85,2.85,0,0,0,1.64,1A1.43,1.43,0,0,0,15,22.72a1.6,1.6,0,0,0,.45-1,2.63,2.63,0,0,0-.34-1.4L13.94,18a24.23,24.23,0,0,1-1.4-3.23,5.3,5.3,0,0,1-.18-2.62,5,5,0,0,1,1.53-2.62A7.49,7.49,0,0,1,17,7.7a6.9,6.9,0,0,1,3.88,0,8.25,8.25,0,0,1,4,2.5,13.34,13.34,0,0,1,2.27,3.14,19,19,0,0,1,1.51,4L24.25,18.4a9.81,9.81,0,0,0-2.45-4.51,5.12,5.12,0,0,0-1.53-1.11,1.86,1.86,0,0,0-2.42,1.54,3.93,3.93,0,0,0,.79,1.89c.23.37,1.3,2.05,1.7,2.66A7.13,7.13,0,0,1,21.59,23a5.93,5.93,0,0,1-2,3.94,5.84,5.84,0,0,1-3.31,1.71,7.13,7.13,0,0,1-3.84-.53,11.72,11.72,0,0,1-3.73-2.58A12.35,12.35,0,0,1,6,21.54Z" transform="translate(-1.6 -2.06)"/></svg>