<?xml version="1.0" encoding="UTF-8"?>
<svg id="Layer_1" data-name="Layer 1" xmlns="http://www.w3.org/2000/svg" xmlns:xlink="http://www.w3.org/1999/xlink" viewBox="0 0 283.44 188.57">
  <defs>
    <style>
    </style>
    <symbol id="_alert" data-name="!alert" viewBox="0 0 16.06 20">
      <path d="m7.23,9.25h1.61v-5.11h-1.61v5.11Zm.8,3.24c.23,0,.42-.08.57-.24.15-.16.23-.35.23-.56,0-.23-.08-.42-.23-.57s-.34-.23-.57-.23c-.21,0-.4.08-.56.23-.16.15-.24.34-.24.57,0,.21.08.4.24.56.16.16.35.24.56.24Zm0,7.52c-2.69-2.29-4.7-4.41-6.03-6.36-1.33-1.95-2-3.76-2-5.41C0,5.73.81,3.73,2.42,2.24,4.03.75,5.9,0,8.03,0s3.99.75,5.61,2.24c1.61,1.49,2.42,3.49,2.42,5.99,0,1.65-.67,3.46-2,5.41-1.33,1.95-3.34,4.08-6.03,6.36Z"/>
    </symbol>
    <symbol id="_circle" data-name="!circle" viewBox="0 0 20 20">
      <path d="m9.99,15.17c.32,0,.58-.1.78-.3.2-.2.3-.46.3-.78s-.1-.57-.3-.78c-.2-.22-.46-.33-.78-.33-.32,0-.58.11-.78.33-.2.22-.3.48-.3.78,0,.32.1.58.3.78s.46.3.78.3Zm-.89-4h1.93v-6.34h-1.93v6.34Zm.89,8.83c-1.38,0-2.68-.26-3.88-.78-1.21-.52-2.26-1.24-3.17-2.15-.91-.91-1.62-1.97-2.15-3.17-.52-1.21-.78-2.5-.78-3.88s.26-2.7.78-3.91c.52-1.21,1.23-2.26,2.14-3.16s1.96-1.62,3.17-2.15c1.21-.53,2.51-.8,3.9-.8s2.71.27,3.92.8c1.21.53,2.27,1.24,3.16,2.14.89.89,1.6,1.95,2.14,3.16.53,1.21.8,2.52.8,3.92s-.27,2.68-.8,3.9c-.53,1.21-1.25,2.27-2.15,3.17-.9.9-1.95,1.61-3.16,2.14-1.21.52-2.51.78-3.91.78Z"/>
    </symbol>
    <symbol id="_triangle" data-name="!triangle" viewBox="0 0 20 17.3">
      <path d="m0,17.3L10,0l10,17.3H0Zm10.09-2.77c.19,0,.36-.07.5-.21.14-.14.21-.31.21-.52,0-.19-.07-.35-.21-.49-.14-.13-.31-.2-.5-.2s-.36.07-.5.21c-.14.14-.21.31-.21.5s.07.36.21.5c.14.14.31.21.5.21Zm-.66-2.43h1.33v-4.85h-1.33v4.85Z"/>
    </symbol>
    <symbol id="_" data-name="?" viewBox="0 0 11.07 20">
      <path d="m4.13,13.3c.02-1.35.18-2.34.48-2.97.3-.63.82-1.25,1.55-1.85.68-.57,1.19-1.11,1.52-1.63.33-.52.5-1.08.5-1.7,0-.68-.23-1.25-.69-1.71-.46-.46-1.09-.69-1.89-.69s-1.46.23-1.94.69c-.48.46-.82,1-1.04,1.61L0,3.9C.42,2.78,1.1,1.85,2.05,1.11c.95-.74,2.13-1.11,3.55-1.11,1.75,0,3.1.5,4.05,1.49.95.99,1.42,2.19,1.42,3.59,0,.92-.17,1.73-.52,2.44-.35.71-.9,1.4-1.65,2.09-.8.72-1.29,1.29-1.46,1.71s-.26,1.09-.26,1.99h-3.05Zm1.48,6.7c-.58,0-1.08-.2-1.48-.61-.4-.41-.6-.9-.6-1.46s.2-1.05.6-1.46c.4-.41.89-.61,1.48-.61s1.08.2,1.48.61c.4.41.6.9.6,1.46s-.2,1.05-.61,1.46c-.41.41-.9.61-1.46.61Z"/>
    </symbol>
    <symbol id="_circle-2" data-name="? circle" viewBox="0 0 20 20">
      <path d="m10.06,15.63c.27,0,.51-.1.71-.3s.3-.45.3-.74c0-.27-.1-.51-.3-.71-.2-.2-.44-.3-.71-.3-.29,0-.53.1-.74.3-.2.2-.3.44-.3.71,0,.29.1.53.3.74s.45.3.74.3Zm-.97-3.52h1.64c0-.4.05-.78.16-1.12s.41-.74.93-1.17c.48-.37.82-.76,1.03-1.18.2-.42.3-.88.3-1.38,0-.87-.27-1.57-.81-2.1-.54-.53-1.27-.8-2.18-.8-.82,0-1.55.21-2.18.64s-1.1,1.01-1.39,1.75l1.5.55c.19-.47.46-.82.8-1.06.34-.24.72-.36,1.16-.36.45,0,.83.13,1.13.4.31.27.46.61.46,1.03,0,.32-.1.64-.29.94-.19.31-.47.6-.82.89-.47.4-.82.82-1.06,1.25-.24.43-.36,1.01-.36,1.71Zm.89,7.89c-1.37,0-2.66-.26-3.87-.78-1.21-.52-2.28-1.24-3.18-2.15-.91-.91-1.62-1.97-2.15-3.17C.26,12.69,0,11.4,0,10.01c0-1.38.26-2.68.78-3.9.52-1.21,1.23-2.27,2.14-3.17s1.96-1.62,3.17-2.15c1.21-.53,2.51-.8,3.9-.8s2.69.27,3.91.8c1.22.53,2.28,1.24,3.17,2.14.89.89,1.6,1.95,2.14,3.16s.8,2.52.8,3.92-.27,2.68-.8,3.9c-.53,1.21-1.25,2.27-2.15,3.17-.9.9-1.95,1.61-3.16,2.14-1.21.52-2.51.78-3.91.78Z"/>
    </symbol>
    <symbol id="Edit" viewBox="0 0 17.46 17.39">
      <g id="pZyuAt.tif">
        <g>
          <path d="m17.46,3.1c-.09.38-.33.65-.6.91-.47.45-.93.92-1.39,1.38-.04.04-.09.09-.12.12-1.18-1.18-2.36-2.36-3.55-3.55.02-.02.06-.06.09-.1.45-.45.89-.89,1.34-1.34.7-.7,1.64-.7,2.34,0,.44.43.86.87,1.3,1.3.27.26.5.53.58.9v.38Z"/>
          <path d="m.3,17.39c-.3-.19-.35-.28-.27-.63.28-1.27.57-2.53.85-3.8,0-.02.01-.04,0-.03,1.16,1.16,2.33,2.33,3.5,3.49-.32.08-.66.16-1.01.25-.94.23-1.88.46-2.83.68-.03,0-.05.02-.08.03h-.17Z"/>
          <path d="m5.39,15.4c-1.16-1.15-2.33-2.32-3.49-3.48,2.99-2.99,5.98-5.98,8.96-8.96,1.15,1.15,2.32,2.32,3.48,3.48-2.97,2.97-5.96,5.96-8.95,8.95Z"/>
        </g>
      </g>
    </symbol>
    <symbol id="Setting" viewBox="0 0 19.96 20">
      <g id="_4HaZLO.tif" data-name="4HaZLO.tif">
        <path d="m8.85,0C9.6,0,10.36,0,11.11,0c.02.01.05.03.07.03.56.14.88.51.97,1.07.07.46.12.93.17,1.39.01.12.05.18.17.22.29.11.58.23.86.36.11.05.17.04.26-.03.35-.28.71-.55,1.06-.83.59-.45,1.22-.42,1.75.1.41.4.81.81,1.21,1.21.52.53.56,1.17.11,1.76-.28.36-.55.72-.84,1.08-.07.08-.07.15-.03.24.12.28.25.56.35.85.05.14.13.18.27.2.48.05.95.11,1.43.19.61.1,1.02.6,1.03,1.22,0,.62,0,1.25,0,1.87,0,.62-.42,1.12-1.03,1.22-.48.08-.96.13-1.45.19-.12.01-.19.05-.24.18-.11.29-.23.58-.36.86-.04.1-.04.16.03.24.28.35.55.71.83,1.06.46.6.43,1.24-.1,1.77-.41.41-.81.82-1.23,1.23-.51.5-1.15.54-1.72.1-.36-.28-.72-.56-1.08-.84-.09-.07-.15-.08-.26-.03-.28.13-.57.25-.86.36-.1.04-.16.09-.17.2-.04.35-.08.7-.13,1.05-.05.35-.07.71-.32,1.01-.2.25-.47.37-.77.46h-2.26s-.05-.03-.07-.03c-.56-.15-.88-.51-.97-1.07-.07-.46-.12-.92-.17-1.37-.01-.13-.06-.2-.19-.25-.28-.1-.56-.22-.83-.34-.11-.05-.18-.05-.28.03-.35.29-.71.56-1.08.84-.57.44-1.21.4-1.72-.11-.42-.41-.83-.83-1.24-1.24-.5-.51-.54-1.15-.1-1.73.28-.37.57-.73.84-1.1.04-.05.05-.16.03-.22-.11-.3-.24-.6-.37-.9-.03-.07-.12-.14-.19-.15-.44-.07-.89-.12-1.33-.17-.35-.04-.67-.16-.88-.45-.13-.18-.2-.4-.3-.6,0-.77,0-1.54,0-2.3.01-.02.03-.04.04-.06.16-.56.54-.87,1.11-.95.44-.06.89-.12,1.33-.16.13-.01.19-.06.23-.18.11-.29.22-.57.35-.84.05-.11.04-.18-.04-.28-.28-.36-.56-.72-.84-1.08-.43-.57-.39-1.22.12-1.73.41-.41.82-.82,1.23-1.23.52-.51,1.15-.56,1.74-.11.37.28.73.57,1.1.84.05.04.14.05.2.03.31-.12.63-.25.93-.39.06-.03.12-.1.13-.16.05-.34.09-.68.13-1.02.04-.34.06-.69.27-.98C8.24.24,8.52.09,8.85,0Zm5.29,9.87c-.1-2.32-2.02-4.13-4.27-4.04-2.32.1-4.14,2.02-4.04,4.29.1,2.31,2.03,4.14,4.27,4.04,2.33-.1,4.14-2.03,4.04-4.29Z"/>
      </g>
    </symbol>
    <symbol id="add_user" data-name="add user" viewBox="0 0 21.15 15.86">
      <path d="m16.64,9.34v-2.97h-2.97v-1.54h2.97V1.85h1.57v2.97h2.95v1.54h-2.95v2.97h-1.57Zm-8.82-1.64c-1.12,0-2.04-.36-2.76-1.08-.72-.72-1.08-1.64-1.08-2.76s.36-2.07,1.08-2.78c.72-.72,1.64-1.08,2.76-1.08s2.05.36,2.77,1.08c.73.72,1.09,1.65,1.09,2.78s-.36,2.04-1.09,2.76c-.73.72-1.65,1.08-2.77,1.08ZM0,15.86v-2.55c0-.61.16-1.16.47-1.65.31-.49.75-.86,1.31-1.11,1.19-.53,2.25-.9,3.18-1.11s1.89-.32,2.85-.32c.98,0,1.94.11,2.87.32s1.99.58,3.17,1.11c.56.25,1,.62,1.32,1.1.32.48.48,1.04.48,1.66v2.55H0Z"/>
    </symbol>
    <symbol id="arrow_" data-name="arrow&amp;lt;" viewBox="0 0 9.55 16">
      <polygon points="9.55 1.55 8 0 1.55 6.45 1.55 6.45 0 8 0 8 0 8 1.55 9.55 1.55 9.55 8 16 9.55 14.45 3.1 8 9.55 1.55"/>
    </symbol>
    <symbol id="arrow_2" data-name="arrow&amp;lt;2" viewBox="0 0 16 16">
      <path d="m8,16L0,8,8,0l1.37,1.35L3.73,7.02h12.27v1.96H3.73l5.64,5.64-1.37,1.37Z"/>
    </symbol>
    <symbol id="arrow_-2" data-name="arrow&amp;gt;" viewBox="0 0 9.55 16">
      <polygon points="0 14.45 1.55 16 8 9.55 8 9.55 9.55 8 9.55 8 9.55 8 8 6.45 8 6.45 1.55 0 0 1.55 6.45 8 0 14.45"/>
    </symbol>
    <symbol id="arrow_2-2" data-name="arrow&amp;gt;2" viewBox="0 0 16 16">
      <path d="m8,0l8,8-8,8-1.37-1.35,5.64-5.67H0v-1.96h12.27L6.63,1.37l1.37-1.37Z"/>
    </symbol>
    <symbol id="back" viewBox="0 0 17.03 16">
      <path d="m3.21,16v-2.05h7.64c1.15,0,2.12-.37,2.94-1.12.81-.74,1.22-1.67,1.22-2.78s-.41-2.04-1.22-2.78c-.81-.74-1.79-1.12-2.94-1.12H3.87l2.69,2.67-1.44,1.44L0,5.13,5.13,0l1.44,1.44-2.69,2.67h6.95c1.69,0,3.15.57,4.37,1.72s1.83,2.56,1.83,4.23c0,1.68-.61,3.09-1.83,4.23s-2.68,1.72-4.37,1.72H3.21Z"/>
    </symbol>
    <symbol id="bell" viewBox="0 0 16.6 20">
      <path d="m0,17.06v-1.9h2.14v-7.01c0-1.43.41-2.71,1.24-3.84.83-1.13,1.93-1.85,3.31-2.16v-.63c0-.43.16-.8.47-1.08C7.48.14,7.86,0,8.29,0c.43,0,.81.14,1.12.43.31.29.47.65.47,1.08v.63c1.38.31,2.49,1.02,3.34,2.16s1.27,2.41,1.27,3.84v7.01h2.12v1.9H0Zm8.29,2.94c-.55,0-1.02-.2-1.43-.6-.41-.4-.61-.88-.61-1.42h4.1c0,.56-.2,1.04-.6,1.43-.4.39-.88.59-1.45.59Z"/>
    </symbol>
    <symbol id="bell_alert" data-name="bell alert" viewBox="0 0 16.6 20">
      <path d="m7.54,11.18h1.49v-4.96h-1.49v4.96Zm.75,2.58c.22,0,.42-.08.59-.24.17-.16.25-.35.25-.58,0-.24-.08-.44-.25-.6-.17-.16-.37-.24-.59-.24-.22,0-.42.08-.59.24-.17.16-.25.36-.25.6,0,.22.08.42.25.58.17.16.37.24.59.24ZM0,17.06v-1.9h2.14v-7.01c0-1.43.41-2.71,1.24-3.84.83-1.13,1.93-1.85,3.31-2.16v-.63c0-.43.16-.8.47-1.08C7.48.14,7.86,0,8.29,0c.43,0,.81.14,1.12.43.31.29.47.65.47,1.08v.63c1.38.31,2.49,1.02,3.34,2.16s1.27,2.41,1.27,3.84v7.01h2.12v1.9H0Zm8.29,2.94c-.55,0-1.02-.2-1.43-.6-.41-.4-.61-.88-.61-1.42h4.1c0,.56-.2,1.04-.6,1.43-.4.39-.88.59-1.45.59Z"/>
    </symbol>
    <symbol id="block" viewBox="0 0 20 20">
      <path d="m9.99,20c-1.38,0-2.68-.26-3.9-.78-1.21-.52-2.27-1.24-3.17-2.15s-1.61-1.97-2.14-3.18c-.52-1.21-.78-2.51-.78-3.9s.26-2.66.78-3.87c.52-1.21,1.23-2.27,2.14-3.17s1.96-1.62,3.17-2.15c1.21-.53,2.51-.8,3.9-.8s2.68.27,3.9.8c1.21.53,2.27,1.25,3.17,2.15s1.62,1.96,2.15,3.17c.53,1.21.8,2.51.8,3.87s-.26,2.69-.78,3.91c-.52,1.22-1.24,2.28-2.15,3.18s-1.97,1.61-3.18,2.14c-1.21.52-2.51.78-3.9.78Zm0-1.91c2.25,0,4.16-.78,5.73-2.35s2.35-3.49,2.35-5.75c0-.92-.15-1.81-.46-2.67-.31-.86-.74-1.64-1.3-2.33l-11.34,11.31c.69.6,1.47,1.04,2.34,1.34.87.3,1.76.45,2.68.45Zm-6.3-3.09L14.98,3.69c-.71-.58-1.49-1.02-2.34-1.31s-1.74-.45-2.65-.45c-2.25,0-4.16.78-5.73,2.34-1.57,1.56-2.35,3.47-2.35,5.72,0,.92.16,1.81.48,2.67.32.86.76,1.64,1.3,2.35Z"/>
    </symbol>
    <symbol id="block_user" data-name="block user" viewBox="0 0 20 20">
      <path d="m12.69,9.46l-4.78-4.75c.27-.16.59-.31.95-.45.36-.14.74-.21,1.12-.21.97,0,1.77.33,2.41.98s.97,1.46.97,2.42c0,.39-.06.78-.18,1.18-.12.4-.29.68-.49.82ZM3.84,15.34c1.01-.63,1.99-1.11,2.94-1.45.95-.34,2.02-.51,3.21-.51.56,0,1.1.04,1.6.12.51.08.91.18,1.22.31l-3.02-3.02c-.92-.03-1.65-.33-2.21-.88-.55-.55-.86-1.26-.9-2.11l-2.99-2.99c-.58.74-1.02,1.53-1.33,2.38-.31.84-.46,1.78-.46,2.81,0,.95.15,1.86.46,2.73.31.87.8,1.74,1.47,2.61Zm12.5-.17c.53-.63.95-1.38,1.27-2.26.31-.88.47-1.85.47-2.91,0-2.43-.74-4.38-2.22-5.86-1.48-1.48-3.43-2.22-5.86-2.22-1.09,0-2.06.16-2.9.47-.84.31-1.59.74-2.27,1.27l11.51,11.51Zm-6.34,4.83c-1.4,0-2.71-.26-3.92-.77s-2.27-1.22-3.17-2.12c-.9-.9-1.61-1.96-2.12-3.17-.51-1.21-.77-2.52-.77-3.92s.26-2.71.77-3.92c.51-1.21,1.22-2.27,2.11-3.17.89-.9,1.95-1.61,3.16-2.14,1.21-.52,2.52-.78,3.92-.78s2.73.26,3.94.78c1.21.52,2.27,1.23,3.17,2.14.9.9,1.61,1.96,2.14,3.17s.78,2.52.78,3.92-.26,2.71-.78,3.92c-.52,1.21-1.23,2.27-2.14,3.17-.9.9-1.96,1.61-3.17,2.12-1.21.51-2.52.77-3.92.77Z"/>
    </symbol>
    <symbol id="calender" viewBox="0 0 18.07 20">
      <path d="m1.91,20c-.51,0-.96-.19-1.34-.57-.38-.38-.57-.82-.57-1.34V3.38c0-.53.19-.99.57-1.36.38-.38.82-.57,1.34-.57h1.45V0h1.81v1.45h7.72V0h1.81v1.45h1.45c.53,0,.99.19,1.36.57.38.38.57.83.57,1.36v14.72c0,.51-.19.96-.57,1.34s-.83.57-1.36.57H1.91Zm0-1.91h14.23V7.84H1.91v10.25Z"/>
    </symbol>
    <symbol id="cancel" viewBox="0 0 20 20">
      <path d="m10,0C4.48,0,0,4.48,0,10s4.48,10,10,10,10-4.48,10-10S15.52,0,10,0Zm4.33,12.94l-1.41,1.41-2.94-2.94-2.94,2.94-1.41-1.41,2.94-2.94-2.94-2.94,1.41-1.41,2.94,2.94,2.94-2.94,1.41,1.41-2.94,2.94,2.94,2.94Z"/>
    </symbol>
    <symbol id="check" viewBox="0 0 16 11.73">
      <path d="m5.61,11.73L0,6.13l1.37-1.34,4.24,4.24L14.63,0l1.37,1.34L5.61,11.73Z"/>
    </symbol>
    <symbol id="check_circle" data-name="check circle" viewBox="0 0 20 20">
      <path d="m8.54,14.6l6.97-6.97-1.38-1.38-5.6,5.6-2.77-2.77-1.35,1.38,4.13,4.15Zm1.45,5.4c-1.37,0-2.66-.26-3.87-.78-1.21-.52-2.28-1.24-3.18-2.15-.91-.91-1.62-1.97-2.15-3.17C.26,12.69,0,11.4,0,10.01c0-1.38.26-2.68.78-3.9.52-1.21,1.23-2.27,2.14-3.17s1.96-1.62,3.17-2.15c1.21-.53,2.51-.8,3.9-.8s2.69.27,3.91.8c1.22.53,2.28,1.24,3.17,2.14.89.89,1.6,1.95,2.14,3.16s.8,2.52.8,3.92-.27,2.68-.8,3.9c-.53,1.21-1.25,2.27-2.15,3.17-.9.9-1.95,1.61-3.16,2.14-1.21.52-2.51.78-3.91.78Z"/>
    </symbol>
    <symbol id="check_done" data-name="check done" viewBox="0 0 16 16.23">
      <path d="m1.17,16.23v-1.88h13.63v1.88H1.17Zm4.46-4.53L0,6.04l1.32-1.32,4.32,4.32L14.68,0l1.32,1.34L5.64,11.7Z"/>
    </symbol>
    <symbol id="close" viewBox="0 0 16 16">
      <polygon points="16 1.78 14.22 0 8 6.22 1.78 0 0 1.78 6.22 8 0 14.22 1.78 16 8 9.78 14.22 16 16 14.22 9.78 8 16 1.78"/>
    </symbol>
    <symbol id="cloud" viewBox="0 0 22.29 12.97">
      <path d="m0,7.48c.11-.45.18-.93.35-1.36.71-1.76,2.01-2.82,3.89-3.17.67-.12,1.33-.09,1.98.07.13.03.19.01.25-.11C7.24,1.34,8.48.36,10.21.08c1.67-.28,3.13.2,4.34,1.38.18.18.31.23.57.14,2.56-.85,5.15,1.42,4.65,4.07-.03.16,0,.23.16.28,1.52.56,2.51,2.14,2.33,3.72-.19,1.72-1.46,3.04-3.14,3.26-.19.03-.39.04-.59.04-4.46,0-8.92.01-13.38,0-2.17,0-3.75-1.01-4.7-2.97-.21-.44-.28-.94-.42-1.41C.03,8.51.02,8.43,0,8.35c0-.29,0-.58,0-.87Z"/>
    </symbol>
    <symbol id="copy" viewBox="0 0 17.68 20">
      <path d="m1.74,20c-.47,0-.88-.17-1.23-.52-.35-.35-.52-.75-.52-1.23V4.7h1.74v13.55h11.08v1.74H1.74Zm3.09-3.07c-.49,0-.9-.17-1.25-.52-.35-.35-.52-.76-.52-1.25V1.74c0-.47.17-.88.52-1.23.35-.35.76-.52,1.25-.52h7.55l5.3,5.3v9.87c0,.49-.17.9-.52,1.25s-.75.52-1.23.52H4.83Zm6.64-10.82h4.46L11.48,1.74v4.37Z"/>
    </symbol>
    <symbol id="down" viewBox="0 0 16 9.55">
      <polygon points="1.55 0 0 1.55 6.45 8 6.45 8 8 9.55 8 9.55 8 9.55 9.55 8 9.55 8 16 1.55 14.45 0 8 6.45 1.55 0"/>
    </symbol>
    <symbol id="down2" viewBox="0 0 16 16">
      <path d="m16,8l-8,8L0,8l1.35-1.37,5.67,5.64V0h1.96v12.27l5.64-5.64,1.37,1.37Z"/>
    </symbol>
    <symbol id="download" viewBox="0 0 19.66 20">
      <path d="m2.26,20c-.62,0-1.16-.22-1.6-.66s-.66-.98-.66-1.6v-4.75h2.26v4.75h15.16v-4.75h2.23v4.75c0,.62-.22,1.16-.66,1.6-.44.44-.97.66-1.57.66H2.26Zm7.58-5.43l-6.03-6.03,1.61-1.58,3.28,3.31V0h2.26v10.27l3.28-3.31,1.61,1.58-6.03,6.03Z"/>
    </symbol>
    <symbol id="drop_down" data-name="drop down" viewBox="0 0 9 6">
      <polygon points="4.5 6 9 0 0 0 4.5 6"/>
    </symbol>
    <symbol id="drop_up" data-name="drop up" viewBox="0 0 9 6">
      <polygon points="4.5 0 0 6 9 6 4.5 0"/>
    </symbol>
    <symbol id="filter" viewBox="0 0 19.84 20">
      <path d="m8.42,20v-6.38h1.96v2.23h9.46v1.96h-9.46v2.2h-1.96ZM0,17.8v-1.96h6.97v1.96H0Zm5.01-4.64v-2.2H0v-1.93h5.01v-2.25h1.96v6.38h-1.96Zm3.4-2.2v-1.93h11.42v1.93h-11.42Zm4.45-4.58V0h1.96v2.2h5.01v1.96h-5.01v2.23h-1.96ZM0,4.16v-1.96h11.42v1.96H0Z"/>
    </symbol>
    <symbol id="folder" viewBox="0 0 20 16.28">
      <path d="m1.91,16.28c-.51,0-.96-.19-1.34-.58-.38-.39-.57-.83-.57-1.33V1.93c0-.51.19-.97.57-1.35C.94.19,1.39,0,1.91,0h6.49l1.59,1.59h8.08c.51,0,.97.19,1.35.58.39.39.58.84.58,1.35v10.86c0,.5-.19.94-.58,1.33s-.84.58-1.35.58H1.91Z"/>
    </symbol>
    <symbol id="folder_open" data-name="folder open" viewBox="0 0 20 15.22">
      <path d="m1.78,15.22c-.47,0-.88-.18-1.24-.54C.18,14.32,0,13.9,0,13.44V1.8c0-.48.18-.9.54-1.26.36-.36.77-.54,1.24-.54h6.09l1.49,1.49h7.53c.48,0,.9.18,1.26.54.36.36.54.78.54,1.26H1.78v10.19l2.3-8.84h15.92l-2.34,8.97c-.17.57-.43.98-.79,1.23-.36.25-.84.37-1.44.37H1.78Z"/>
    </symbol>
    <symbol id="group" viewBox="0 0 20 14.57">
      <path d="m0,14.57v-2.4c0-.57.15-1.09.44-1.55.29-.46.7-.81,1.23-1.04,1.08-.47,2.07-.81,2.95-1.02s1.79-.32,2.73-.32,1.86.1,2.74.31,1.85.55,2.93,1.03c.51.22.92.56,1.23,1.02.31.46.46.99.46,1.57v2.4H0Zm16.15,0v-2.37c0-.94-.23-1.72-.69-2.34-.46-.62-1.09-1.17-1.88-1.64.95.13,1.85.31,2.69.53s1.53.47,2.05.75c.51.28.92.66,1.22,1.13.3.48.45,1.01.45,1.62v2.33h-3.85ZM7.34,6.9c-1.01,0-1.84-.32-2.48-.97s-.97-1.47-.97-2.48.32-1.86.97-2.49C5.5.32,6.33,0,7.34,0c1.03,0,1.86.32,2.49.96.64.64.96,1.46.96,2.47,0,1.03-.32,1.86-.96,2.51-.64.64-1.47.97-2.49.97Zm8.37-3.47c0,1.03-.32,1.86-.97,2.51-.64.64-1.47.97-2.48.97-.18,0-.36-.01-.55-.04-.19-.03-.37-.07-.55-.13.37-.4.64-.87.82-1.42.18-.55.27-1.17.27-1.86s-.09-1.3-.27-1.84c-.18-.53-.46-1.01-.82-1.44.16-.06.34-.1.54-.13.2-.03.38-.04.56-.04,1.01,0,1.84.32,2.48.97.64.64.97,1.47.97,2.46Z"/>
    </symbol>
    <symbol id="home" viewBox="0 0 17.79 20">
      <path d="m0,20V6.68L8.88,0l8.91,6.68v13.32h-6.7v-7.9h-4.41v7.9H0Z"/>
    </symbol>
    <symbol id="img" viewBox="0 0 20 20">
      <path d="m2.11,20c-.57,0-1.06-.21-1.48-.63-.42-.42-.63-.91-.63-1.48V2.14c0-.59.21-1.09.63-1.51.42-.42.91-.63,1.48-.63h15.75c.59,0,1.09.21,1.51.63.42.42.63.92.63,1.51v15.75c0,.57-.21,1.06-.63,1.48-.42.42-.92.63-1.51.63H2.11Zm1.17-4.43h13.43l-4.11-5.58-3.52,4.57-2.48-3.39-3.31,4.41Z"/>
    </symbol>
    <symbol id="invisible" viewBox="0 0 20 17.92">
      <path d="m17.31,17.92l-3.53-3.49c-.52.21-1.1.37-1.75.49-.65.12-1.33.18-2.02.18-2.19,0-4.19-.62-5.99-1.85-1.8-1.24-3.14-2.92-4.01-5.06.28-.75.69-1.5,1.23-2.25.54-.75,1.17-1.47,1.89-2.16L.38,1.06,1.41,0l16.84,16.87-.95,1.06Zm-7.31-5.98c.18,0,.37-.02.57-.06.21-.04.38-.08.53-.14l-4.68-4.66c-.06.16-.1.34-.13.53-.03.19-.04.38-.04.57,0,1.06.37,1.95,1.1,2.67.74.72,1.62,1.08,2.65,1.08Zm6.45.99l-3.11-3.11c.13-.21.24-.46.31-.76.07-.3.11-.59.11-.87,0-1.04-.36-1.93-1.09-2.66-.73-.73-1.62-1.09-2.66-1.09-.28,0-.56.03-.85.1-.29.07-.55.17-.78.3l-2.65-2.67c.52-.24,1.18-.44,2.01-.62.82-.18,1.62-.26,2.38-.26,2.13,0,4.1.61,5.91,1.84,1.8,1.23,3.13,2.92,3.98,5.07-.37.96-.86,1.84-1.48,2.64-.62.8-1.31,1.5-2.08,2.11Zm-4.48-4.5l-2.27-2.27c.29-.13.61-.18.95-.13.34.04.64.18.91.42.25.26.42.55.52.86s.06.68-.1,1.13Z"/>
    </symbol>
    <symbol id="key" viewBox="0 0 20 11.17">
      <path d="m5.58,11.17c-1.55,0-2.86-.54-3.95-1.63C.54,8.45,0,7.13,0,5.58c0-1.55.54-2.86,1.63-3.95C2.72.54,4.04,0,5.58,0c1.35,0,2.49.37,3.4,1.11s1.55,1.62,1.92,2.64h9.09v3.66h-2.34v3.6h-3.07v-3.6h-3.69c-.37,1.02-1.01,1.89-1.92,2.64s-2.05,1.11-3.4,1.11Zm0-3.95c.47,0,.86-.15,1.17-.46.31-.31.46-.7.46-1.17s-.15-.86-.46-1.17c-.31-.31-.7-.46-1.17-.46s-.84.15-1.16.46c-.32.31-.47.7-.47,1.17s.15.84.46,1.16.7.47,1.17.47Z"/>
    </symbol>
    <symbol id="layers" viewBox="0 0 19.87 20">
      <path d="m9.91,20L0,12.26l1.71-1.27,8.2,6.42,8.25-6.42,1.71,1.27-9.96,7.74Zm0-4.55L0,7.71,9.91,0l9.94,7.71-9.94,7.74Z"/>
    </symbol>
    <symbol id="light_bulb" data-name="light bulb" viewBox="0 0 14.31 21.61">
      <g>
        <path d="m7.58,0c.43.07.86.12,1.28.22,1.29.3,2.4.94,3.34,1.87,1.03,1.03,1.69,2.27,1.98,3.7.27,1.31.09,2.54-.55,3.73-.72,1.36-1.65,2.56-2.67,3.7-.31.35-.63.7-.97,1.03-.33.32-.49.73-.63,1.15-.02.07-.01.15-.01.23,0,.59,0,1.18,0,1.78h-4.4c0-.12,0-.25,0-.37,0-.5.04-1,0-1.5-.03-.45-.23-.86-.54-1.18-1.02-1.06-2-2.14-2.83-3.35-.58-.84-1.09-1.7-1.4-2.68-.23-.74-.22-1.5-.1-2.25C.41,4.05,1.43,2.45,3.1,1.27,4.13.54,5.29.14,6.55.03c.06,0,.12-.02.18-.03C7.02,0,7.3,0,7.58,0Z"/>
        <path d="m9.35,19.3c.07.77-.05,1.46-.7,1.95-.28.21-.6.34-.95.35-.4.01-.8.02-1.2-.02-.77-.08-1.39-.69-1.51-1.46-.04-.27-.03-.54-.04-.83h4.4Z"/>
        <path d="m4.96,18.5v-.29h4.39v.29h-4.39Z"/>
      </g>
    </symbol>
    <symbol id="link" viewBox="0 0 20 10.35">
      <path d="m9.12,10.35h-3.96c-1.43,0-2.65-.5-3.66-1.51C.5,7.84,0,6.62,0,5.19c0-1.43.5-2.65,1.51-3.67C2.51.51,3.73,0,5.16,0h3.96v1.93h-3.96c-.9,0-1.67.31-2.3.94-.64.63-.95,1.4-.95,2.32s.32,1.67.95,2.3c.64.64,1.4.95,2.3.95h3.96v1.91Zm-3.11-4.37v-1.59h7.96v1.59h-7.96Zm4.85,4.37v-1.91h3.96c.9,0,1.67-.31,2.3-.94.64-.63.95-1.4.95-2.32s-.32-1.67-.95-2.3c-.64-.64-1.4-.95-2.3-.95h-3.96V0h3.96c1.43,0,2.65.51,3.67,1.52,1.01,1.01,1.52,2.24,1.52,3.67s-.51,2.65-1.52,3.66c-1.01,1.01-2.24,1.51-3.67,1.51h-3.96Z"/>
    </symbol>
    <symbol id="list" viewBox="0 0 20 12.12">
      <path d="m0,12.12v-2.09h15.08v2.09H0Zm0-5v-2.12h15.08v2.12H0ZM0,2.09V0h15.08v2.09H0Zm18.94,10.03c-.3,0-.55-.1-.75-.3s-.3-.45-.3-.75.1-.55.3-.74c.2-.19.45-.29.75-.29s.55.1.75.3c.2.2.3.45.3.75s-.11.55-.32.74c-.21.19-.46.29-.74.29Zm0-5c-.3,0-.55-.1-.75-.3-.2-.2-.3-.45-.3-.75s.1-.55.3-.75c.2-.2.45-.3.75-.3s.55.1.75.3c.2.2.3.45.3.75,0,.3-.11.55-.32.75-.21.2-.46.3-.74.3Zm0-5.03c-.3,0-.55-.1-.75-.3-.2-.2-.3-.45-.3-.75s.1-.55.3-.74.45-.29.75-.29.55.1.75.3.3.45.3.75-.11.55-.32.74c-.21.19-.46.29-.74.29Z"/>
    </symbol>
    <symbol id="locked" viewBox="0 0 20 13.62">
      <path d="m10,13.62c-1.75,0-3.26-.57-4.52-1.71-1.26-1.14-2-2.56-2.22-4.25H0v-1.69h3.26c.22-1.69.96-3.11,2.22-4.25,1.26-1.14,2.77-1.71,4.52-1.71s3.26.57,4.52,1.71c1.26,1.14,2,2.56,2.22,4.25h3.26v1.69h-3.26c-.22,1.69-.96,3.11-2.22,4.25-1.26,1.14-2.77,1.71-4.52,1.71Zm-1.76-3.64h3.52c.27,0,.49-.09.66-.26.17-.17.26-.39.26-.66v-2.63c0-.27-.09-.49-.26-.67-.17-.18-.39-.27-.66-.27h-.02v-.85c0-.49-.17-.91-.5-1.27-.34-.36-.76-.54-1.26-.54-.47,0-.87.18-1.21.54s-.5.79-.5,1.29v.82h-.02c-.25,0-.47.09-.65.27s-.27.4-.27.65v2.65c0,.27.09.49.27.66.18.17.4.26.65.26Zm1.76-1.48c-.22,0-.4-.07-.54-.21-.14-.14-.21-.32-.21-.54s.07-.4.21-.55c.14-.15.32-.22.54-.22s.4.07.55.22.22.33.22.55-.07.4-.22.54-.33.21-.55.21Zm-.96-3v-.82c0-.28.09-.53.28-.74.19-.21.41-.32.68-.32s.49.11.68.32c.19.21.28.46.28.74v.82h-1.92Z"/>
    </symbol>
    <symbol id="locker_closed" viewBox="0 0 15.49 20">
      <path d="m1.83,20c-.51,0-.94-.18-1.3-.54C.18,19.09,0,18.67,0,18.17v-9.81c0-.51.18-.95.53-1.31.35-.36.79-.54,1.3-.54h1.37v-1.92c0-1.28.44-2.36,1.32-3.25C5.39.44,6.47,0,7.73,0c1.27,0,2.34.44,3.22,1.33.88.89,1.32,1.97,1.32,3.25v1.92h1.37c.51,0,.95.18,1.31.54.36.36.54.8.54,1.31v9.81c0,.49-.18.92-.54,1.28-.36.36-.8.54-1.31.54H1.83Zm5.9-4.95c.49,0,.91-.17,1.26-.51.35-.34.52-.75.52-1.23s-.17-.88-.52-1.26-.77-.57-1.26-.57-.91.19-1.26.57c-.35.38-.52.8-.52,1.26s.17.89.52,1.23c.35.34.77.51,1.26.51Zm-2.71-8.54h5.42v-1.92c0-.77-.26-1.42-.79-1.96-.52-.53-1.17-.8-1.92-.8s-1.4.27-1.92.8c-.52.53-.79,1.18-.79,1.96v1.92Z"/>
    </symbol>
    <symbol id="locker_open" viewBox="0 0 15.49 20">
      <path d="m1.83,6.5h8.61v-1.92c0-.77-.26-1.42-.79-1.96-.52-.53-1.17-.8-1.92-.8s-1.4.27-1.92.8c-.52.53-.79,1.18-.79,1.96h-1.83c0-1.28.44-2.36,1.32-3.25C5.39.44,6.47,0,7.73,0c1.27,0,2.34.44,3.22,1.33.88.89,1.32,1.97,1.32,3.25v1.92h1.37c.51,0,.95.18,1.31.54.36.36.54.8.54,1.31v9.81c0,.49-.18.92-.54,1.28-.36.36-.8.54-1.31.54H1.83c-.51,0-.94-.18-1.3-.54C.18,19.09,0,18.67,0,18.17v-9.81c0-.51.18-.95.53-1.31.35-.36.79-.54,1.3-.54Zm5.9,8.54c.49,0,.91-.17,1.26-.51.35-.34.52-.75.52-1.23s-.17-.88-.52-1.26-.77-.57-1.26-.57-.91.19-1.26.57c-.35.38-.52.8-.52,1.26s.17.89.52,1.23c.35.34.77.51,1.26.51Z"/>
    </symbol>
    <symbol id="logout" viewBox="0 0 20 19.71">
      <path d="m2.08,19.71c-.56,0-1.05-.21-1.46-.62-.41-.41-.62-.9-.62-1.46V2.11c0-.58.21-1.07.62-1.49.41-.41.9-.62,1.46-.62h7.76v2.11H2.08v15.53h7.76v2.08H2.08Zm12.84-4.71l-1.53-1.47,2.63-2.61H7.05v-2.11h8.92l-2.63-2.61,1.53-1.47,5.13,5.16-5.08,5.11Z"/>
    </symbol>
    <symbol id="mail" viewBox="0 0 20 16.14">
      <path d="m1.91,16.14c-.51,0-.96-.19-1.34-.57-.38-.38-.57-.82-.57-1.34V1.93c0-.53.19-.99.57-1.36.38-.38.82-.57,1.34-.57h16.16c.53,0,.99.19,1.36.57.38.38.57.83.57,1.36v12.3c0,.51-.19.96-.57,1.34-.38.38-.83.57-1.36.57H1.91Zm8.08-7.19l8.08-5.38v-1.64l-8.08,5.26L1.91,1.93v1.64l8.08,5.38Z"/>
    </symbol>
    <symbol id="menu1" viewBox="0 0 18.76 4.1">
      <g>
        <path d="m0,1.79c.1-.27.17-.56.31-.81C.79.17,1.77-.18,2.66.1c.88.28,1.48,1.13,1.44,2.03-.05.95-.72,1.74-1.63,1.93C1.34,4.29.24,3.54.03,2.41.03,2.37.01,2.34,0,2.31c0-.17,0-.34,0-.51Z"/>
        <path d="m7.22,2.04C7.22.92,8.15,0,9.28,0c1.12,0,2.04.93,2.04,2.05,0,1.12-.93,2.05-2.05,2.05-1.13,0-2.05-.93-2.04-2.06Z"/>
        <path d="m18.76,2.05c0,1.13-.93,2.05-2.05,2.05-1.12,0-2.05-.94-2.04-2.06C14.67.92,15.59,0,16.71,0c1.13,0,2.05.92,2.05,2.05Z"/>
      </g>
    </symbol>
    <symbol id="menu2" viewBox="0 0 4.1 18.76">
      <g>
        <path d="m1.79,18.76c-.27-.1-.56-.17-.81-.31-.81-.48-1.17-1.45-.89-2.35.28-.88,1.13-1.48,2.03-1.44.95.05,1.74.72,1.93,1.63.23,1.12-.51,2.23-1.65,2.43-.03,0-.07.02-.1.03-.17,0-.34,0-.51,0Z"/>
        <path d="m2.04,11.54C.92,11.54,0,10.61,0,9.48c0-1.12.93-2.04,2.05-2.04,1.12,0,2.05.93,2.05,2.05,0,1.13-.93,2.05-2.06,2.04Z"/>
        <path d="m2.05,0c1.13,0,2.05.93,2.05,2.05,0,1.12-.94,2.05-2.06,2.04C.92,4.09,0,3.17,0,2.05,0,.93.92,0,2.05,0Z"/>
      </g>
    </symbol>
    <symbol id="minus1" viewBox="0 0 20 20">
      <path d="m10,0C4.48,0,0,4.48,0,10s4.48,10,10,10,10-4.48,10-10S15.52,0,10,0Zm6,11.03H4v-2.03h12v2.03Z"/>
    </symbol>
    <symbol id="minus2" viewBox="0 0 16 2.21">
      <path d="m0,2.21V0h16v2.21H0Z"/>
    </symbol>
    <symbol id="no_security" data-name="no security" viewBox="0 0 19.18 20">
      <path d="m16.8,14.26L4.64,2.09,10.26,0l7.88,2.92v5.84c0,.97-.12,1.93-.36,2.86s-.57,1.82-.98,2.65Zm1.27,5.74l-3.22-3.18c-.67.69-1.39,1.26-2.15,1.72-.76.45-1.57.78-2.44.99-2.34-.64-4.23-1.97-5.68-3.99-1.45-2.02-2.18-4.28-2.18-6.79v-4.42L0,1.93,1.13.82l18.05,18.05-1.11,1.13Z"/>
    </symbol>
    <symbol id="plus1" viewBox="0 0 20 20">
      <path d="m17.07,2.93C13.17-.98,6.83-.98,2.93,2.93s-3.91,10.24,0,14.14,10.24,3.91,14.14,0,3.91-10.24,0-14.14Zm-6.09,12.21h-2v-4.15h-4.15v-2s4.15,0,4.15,0v-4.15s2,0,2,0v4.15h4.15v2h-4.15v4.15Z"/>
    </symbol>
    <symbol id="plus2" viewBox="0 0 16 16">
      <path d="m6.9,16v-6.9H0v-2.21h6.9V0h2.21v6.9h6.9v2.21h-6.9v6.9h-2.21Z"/>
    </symbol>
    <symbol id="refresh" viewBox="0 0 23 17.02">
      <path d="m11.47,17.02c-2.29,0-4.27-.83-5.96-2.49-1.68-1.66-2.53-3.62-2.53-5.89v-1.19l-1.88,1.91-1.11-1.13,4.02-4.05,4.05,4.05-1.13,1.13-1.88-1.91v1.13c0,1.75.63,3.25,1.9,4.5,1.26,1.25,2.77,1.87,4.53,1.87.53,0,1.03-.05,1.5-.14.46-.09.89-.24,1.29-.43l1.44,1.44c-.65.41-1.33.71-2.04.9-.7.19-1.44.28-2.19.28Zm7.5-4.23l-4.05-4.05,1.13-1.13,1.88,1.88v-1.06c0-1.74-.64-3.23-1.91-4.49-1.27-1.25-2.78-1.88-4.54-1.88-.53,0-1.03.05-1.5.15-.46.1-.89.23-1.29.39l-1.44-1.44c.67-.41,1.35-.71,2.05-.89.7-.18,1.42-.27,2.18-.27,2.29,0,4.27.83,5.96,2.5s2.53,3.64,2.53,5.9v1.13l1.88-1.91,1.13,1.11-4.02,4.05Z"/>
    </symbol>
    <symbol id="search" viewBox="0 0 19.16 19.11">
      <path d="m0,7.19C.05,3.55,2.8.42,6.35.04c3.77-.4,7.14,2,7.89,5.65.39,1.91.06,3.71-1,5.36-.13.2-.14.31.04.48,1.79,1.78,3.58,3.57,5.37,5.35.26.26.48.52.51.9.04.52-.22.98-.66,1.19-.47.23-.98.15-1.37-.23-.66-.64-1.31-1.3-1.96-1.95-1.21-1.21-2.41-2.41-3.61-3.62-.15-.15-.24-.13-.4-.03C6.97,15.84,1.5,13.71.27,8.89c-.14-.56-.18-1.14-.27-1.71Zm7.2,4.75c2.64,0,4.78-2.12,4.79-4.75.01-2.66-2.11-4.8-4.76-4.8-2.64,0-4.77,2.12-4.78,4.76,0,2.64,2.12,4.78,4.75,4.79Z"/>
    </symbol>
    <symbol id="security" viewBox="0 0 16.12 20">
      <path d="m8.05,20c-2.35-.59-4.27-1.95-5.78-4.06C.76,13.83,0,11.51,0,8.99V3.01L8.05,0l8.07,3.01v5.98c0,2.52-.76,4.84-2.28,6.95-1.52,2.11-3.45,3.47-5.8,4.06Zm0-1.98c1.65-.59,3.03-1.62,4.13-3.08,1.1-1.46,1.75-3.11,1.94-4.94h-6.07V2.07L1.9,4.36v4.63c0,.18,0,.34.01.49,0,.15.03.33.06.52h6.07v8.02Z"/>
    </symbol>
    <symbol id="service" viewBox="0 0 18 18.32">
      <g>
        <path d="m2.59,1.96c-.2,0-.37.07-.51.21s-.21.31-.21.51c0,.2.07.37.21.51s.31.21.51.21.37-.07.51-.21.21-.31.21-.51-.07-.37-.21-.51-.31-.21-.51-.21ZM.62,0h16.74c.19,0,.35.06.47.19s.18.28.18.47v3.94c0,.22-.06.4-.18.54s-.27.21-.47.21H.62c-.18,0-.33-.07-.44-.21-.11-.14-.17-.32-.17-.54V.66c0-.19.06-.35.17-.47S.43,0,.62,0Z"/>
        <path d="m2.59,8.36c-.2,0-.37.07-.51.21s-.21.31-.21.51c0,.2.07.37.21.51s.31.21.51.21.37-.07.51-.21.21-.31.21-.51-.07-.37-.21-.51-.31-.21-.51-.21Zm-1.98-1.96h16.74c.19,0,.35.06.47.19s.18.28.18.47v3.94c0,.22-.06.4-.18.54s-.27.21-.47.21H.62c-.18,0-.33-.07-.44-.21-.11-.14-.17-.32-.17-.54v-3.94c0-.19.06-.35.17-.47s.26-.19.44-.19Z"/>
        <path d="m2.59,14.93c-.2,0-.37.07-.51.21s-.21.31-.21.51c0,.2.07.37.21.51s.31.21.51.21.37-.07.51-.21.21-.31.21-.51-.07-.37-.21-.51-.31-.21-.51-.21Zm-1.98-1.96h16.74c.19,0,.35.06.47.19s.18.28.18.47v3.94c0,.22-.06.4-.18.54s-.27.21-.47.21H.62c-.18,0-.33-.07-.44-.21-.11-.14-.17-.32-.17-.54v-3.94c0-.19.06-.35.17-.47s.26-.19.44-.19Z"/>
      </g>
    </symbol>
    <symbol id="share" viewBox="0 0 18.09 20">
      <path d="m15.01,20c-.86,0-1.58-.3-2.18-.91-.6-.61-.9-1.33-.9-2.17,0-.11.01-.25.04-.41.02-.16.06-.31.11-.46l-6.83-3.97c-.27.29-.61.53-.99.71-.39.19-.78.28-1.19.28-.86,0-1.58-.3-2.18-.9S0,10.86,0,10c0-.86.3-1.58.9-2.18.6-.6,1.32-.9,2.18-.9.4,0,.79.08,1.16.24.37.16.71.39,1.02.68l6.83-3.92c-.05-.11-.08-.25-.11-.41-.02-.16-.04-.31-.04-.44,0-.86.3-1.58.9-2.18C13.43.3,14.16,0,15.01,0c.86,0,1.58.3,2.18.9.6.6.9,1.32.9,2.18s-.3,1.58-.9,2.18c-.6.6-1.32.9-2.18.9-.42,0-.82-.06-1.19-.19-.37-.13-.69-.34-.94-.63l-6.85,3.75c.05.13.08.29.1.47.02.19.02.33.02.45s0,.24-.02.38-.05.28-.1.42l6.85,3.85c.26-.24.56-.44.92-.58.36-.15.76-.22,1.21-.22.86,0,1.58.3,2.18.9s.9,1.32.9,2.18-.3,1.58-.9,2.18c-.6.6-1.32.9-2.18.9Z"/>
    </symbol>
    <symbol id="shield" viewBox="0 0 16.12 20">
      <path d="m8.05,20c-2.35-.59-4.27-1.95-5.78-4.06C.76,13.83,0,11.51,0,8.99V3.01L8.05,0l8.07,3.01v5.98c0,2.52-.76,4.84-2.28,6.95-1.52,2.11-3.45,3.47-5.8,4.06Z"/>
    </symbol>
    <symbol id="shield_enabled" data-name="shield enabled" viewBox="0 0 16.12 20">
      <path d="m6.99,13.13l5.61-5.61-1.13-1.11-4.41,4.41-2.46-2.43-1.16,1.16,3.54,3.59Zm1.06,6.87c-2.35-.59-4.27-1.95-5.78-4.06C.76,13.83,0,11.51,0,8.99V3.01L8.05,0l8.07,3.01v5.98c0,2.52-.76,4.84-2.28,6.95-1.52,2.11-3.45,3.47-5.8,4.06Z"/>
    </symbol>
    <symbol id="spot" viewBox="0 0 16.06 20">
      <path d="m8.03,9.81c.49,0,.9-.17,1.25-.52.35-.35.52-.77.52-1.25s-.17-.9-.52-1.25c-.35-.35-.77-.52-1.25-.52s-.9.17-1.25.52c-.35.35-.52.77-.52,1.25s.17.9.52,1.25c.35.35.77.52,1.25.52Zm0,10.19c-2.69-2.29-4.7-4.41-6.03-6.36-1.33-1.95-2-3.76-2-5.41C0,5.73.81,3.73,2.42,2.24,4.03.75,5.9,0,8.03,0s3.99.75,5.61,2.24c1.61,1.49,2.42,3.49,2.42,5.99,0,1.65-.67,3.46-2,5.41-1.33,1.95-3.34,4.08-6.03,6.36Z"/>
    </symbol>
    <symbol id="trash" viewBox="0 0 19.08 21.15">
      <g id="qBvVvC.tif">
        <g>
          <path d="m19.08,5.89c-.17.37-.46.47-.85.47-5.75,0-11.5,0-17.25,0-.18,0-.37-.01-.55-.05-.24-.05-.41-.2-.41-.45-.01-.58-.04-1.16.03-1.73.12-.92.91-1.57,1.84-1.58,1.19,0,2.39,0,3.58,0,.17,0,.25-.05.3-.21.1-.33.21-.66.32-.98.24-.71.73-1.16,1.47-1.32.03,0,.05-.02.07-.04,1.27,0,2.54,0,3.82,0,.02.01.05.03.07.04.74.16,1.23.6,1.47,1.32.11.33.23.67.33,1,.04.15.11.19.27.19,1.19,0,2.39-.01,3.58,0,.82.01,1.41.41,1.75,1.15.07.16.11.33.16.5v1.7ZM7.03,2.53h5.01c-.1-.3-.19-.58-.29-.85-.1-.26-.3-.4-.57-.4-1.09,0-2.19,0-3.28,0-.27,0-.47.14-.57.4-.11.28-.19.56-.29.86Z"/>
          <path d="m1.44,7.16h16.2c0,.07,0,.14,0,.21-.12,1.44-.24,2.89-.36,4.33-.11,1.27-.21,2.55-.32,3.82-.11,1.32-.21,2.63-.34,3.95-.1.99-.9,1.68-1.91,1.68-2.59,0-5.17,0-7.76,0-.82,0-1.64,0-2.46,0-1.2,0-1.97-.69-2.07-1.89-.19-2.31-.38-4.62-.57-6.93-.13-1.62-.27-3.24-.41-4.86,0-.1,0-.19-.02-.31Zm4.92,6.36c0-1.46,0-2.92,0-4.38,0-.44-.25-.71-.64-.7-.39,0-.63.27-.63.69,0,2.92,0,5.85,0,8.77,0,.05,0,.1,0,.15.03.26.18.44.43.52.45.14.84-.15.84-.64,0-1.47,0-2.94,0-4.41Zm3.82,0c0-1.46,0-2.92,0-4.38,0-.44-.25-.71-.64-.7-.39,0-.63.27-.63.69,0,2.92,0,5.85,0,8.77,0,.05,0,.1,0,.15.03.26.18.44.43.52.45.14.84-.15.84-.64,0-1.47,0-2.94,0-4.41Zm3.82.01c0-1.13,0-2.26,0-3.39,0-.37,0-.73,0-1.1-.01-.33-.27-.59-.59-.61-.31-.02-.6.2-.66.51-.02.08-.01.17-.01.25,0,2.88,0,5.76,0,8.65,0,.07,0,.14,0,.21.03.25.17.43.42.51.45.15.85-.14.85-.62,0-1.47,0-2.94,0-4.41Z"/>
        </g>
      </g>
    </symbol>
    <symbol id="up" viewBox="0 0 16 9.55">
      <polygon points="14.45 9.55 16 8 9.55 1.55 9.55 1.55 8 0 8 0 8 0 6.45 1.55 6.45 1.55 0 8 1.55 9.55 8 3.1 14.45 9.55"/>
    </symbol>
    <symbol id="up2" viewBox="0 0 16 16">
      <path d="m0,8L8,0l8,8-1.35,1.37-5.67-5.64v12.27h-1.96V3.73L1.37,9.37l-1.37-1.37Z"/>
    </symbol>
    <symbol id="upload" viewBox="0 0 15.18 21">
      <path d="m1.83,21c-.51,0-.94-.18-1.3-.54C.18,20.09,0,19.66,0,19.17v-10.96c0-.51.18-.94.53-1.3s.79-.53,1.3-.53h3.41v1.83H1.83v10.96h11.5v-10.96h-3.45v-1.83h3.45c.51,0,.95.18,1.31.53s.54.79.54,1.3v10.96c0,.49-.18.92-.54,1.29-.36.36-.8.54-1.31.54H1.83Zm4.8-7.07V3.55l-2.04,2.04-1.3-1.3L7.56,0l4.26,4.29-1.3,1.3-2.04-2.04v10.38h-1.85Z"/>
    </symbol>
    <symbol id="uploaded_file" data-name="uploaded file" viewBox="0 0 16.14 20">
      <path d="m1.91,20c-.51,0-.96-.19-1.34-.57C.19,19.06,0,18.61,0,18.09V1.93c0-.53.19-.99.57-1.36.38-.38.82-.57,1.34-.57h8.54l5.69,5.69v12.4c0,.51-.19.96-.57,1.34s-.83.57-1.36.57H1.91Zm6.15-3.84c.93,0,1.73-.33,2.39-.99.66-.66.99-1.46.99-2.39v-3.33h-.97v3.33c0,.68-.23,1.25-.7,1.71-.47.47-1.04.7-1.71.7s-1.25-.23-1.71-.7c-.47-.47-.7-1.04-.7-1.71v-5.26c0-.29.09-.52.28-.7.18-.18.41-.27.69-.27.29,0,.52.09.7.27s.27.41.27.7v4.78h.97v-4.78c0-.55-.18-1.01-.55-1.38s-.83-.55-1.38-.55c-.55,0-1.01.18-1.38.55s-.55.83-.55,1.38v5.26c0,.93.33,1.73.99,2.39.66.66,1.46.99,2.39.99Zm1.79-9.87h4.37L9.84,1.93v4.37Z"/>
    </symbol>
    <symbol id="user" viewBox="0 0 15.79 16">
      <path d="m7.88,7.76c-1.13,0-2.06-.36-2.78-1.09s-1.09-1.65-1.09-2.78.36-2.08,1.09-2.81c.72-.72,1.65-1.09,2.78-1.09s2.06.36,2.8,1.09c.73.72,1.1,1.66,1.1,2.81s-.37,2.06-1.1,2.78c-.73.72-1.66,1.09-2.8,1.09ZM0,16v-2.57c0-.65.17-1.21.5-1.69.33-.48.76-.85,1.3-1.1,1.07-.49,2.1-.85,3.09-1.09.99-.24,1.99-.35,3-.35s2.03.12,3.01.37c.98.24,2,.6,3.06,1.07.55.24,1,.59,1.33,1.07.34.48.51,1.05.51,1.71v2.57H0Z"/>
    </symbol>
    <symbol id="user_circle" data-name="user circle" viewBox="0 0 20 20">
      <path d="m3.81,15.3c1.01-.64,2.01-1.12,2.99-1.44.98-.31,2.04-.47,3.18-.47s2.21.16,3.21.48c1,.32,1.99.8,2.99,1.42.69-.88,1.18-1.75,1.46-2.59.28-.84.42-1.74.42-2.69,0-2.28-.78-4.2-2.33-5.75-1.55-1.55-3.47-2.33-5.75-2.33s-4.2.78-5.75,2.33c-1.55,1.55-2.33,3.47-2.33,5.75,0,.95.14,1.85.43,2.69.29.84.78,1.71,1.47,2.59Zm6.18-4.46c-.97,0-1.77-.33-2.41-.98-.64-.65-.97-1.45-.97-2.4s.33-1.77.98-2.42c.65-.65,1.45-.98,2.4-.98.97,0,1.77.33,2.41.99s.97,1.46.97,2.41-.33,1.75-.98,2.4-1.45.98-2.4.98Zm0,9.17c-1.38,0-2.68-.26-3.9-.78-1.21-.52-2.28-1.24-3.18-2.15-.91-.91-1.62-1.97-2.14-3.18-.51-1.21-.77-2.51-.77-3.87s.26-2.68.78-3.9c.52-1.21,1.24-2.27,2.15-3.17.91-.9,1.97-1.62,3.18-2.15C7.33.27,8.63,0,10.01,0c1.37,0,2.66.27,3.87.8,1.21.53,2.27,1.25,3.17,2.15.9.9,1.62,1.96,2.15,3.17.53,1.21.8,2.51.8,3.9s-.27,2.66-.8,3.87c-.53,1.21-1.25,2.28-2.15,3.18-.9.91-1.96,1.62-3.17,2.15-1.21.52-2.51.78-3.9.78Z"/>
    </symbol>
    <symbol id="user_folder" data-name="user folder" viewBox="0 0 20 18.21">
      <path d="m5.98,13.99h8.01v-.53c0-.69-.35-1.23-1.05-1.62-.7-.39-1.68-.58-2.96-.58-1.25,0-2.24.19-2.94.58s-1.06.92-1.06,1.62v.53Zm4-4.34c.51,0,.95-.18,1.3-.54.35-.36.53-.79.53-1.29s-.18-.95-.53-1.31-.79-.54-1.3-.54c-.51,0-.95.18-1.3.54s-.53.79-.53,1.29c0,.51.18.95.53,1.31.35.36.79.54,1.3.54ZM1.91,18.21c-.51,0-.96-.19-1.34-.57-.38-.38-.57-.82-.57-1.34V4.17c0-.51.19-.97.57-1.35.38-.39.82-.58,1.34-.58h3.35l1.91-2.24h5.67l1.88,2.24h3.35c.51,0,.97.19,1.35.58.39.39.58.84.58,1.35v12.14c0,.51-.19.96-.58,1.34-.39.38-.84.57-1.35.57H1.91Z"/>
    </symbol>
    <symbol id="user_list" data-name="user list" viewBox="0 0 20 17.76">
      <path d="m13.52,10.89c-.95,0-1.74-.32-2.37-.96s-.94-1.43-.94-2.39c0-.97.32-1.77.96-2.4.64-.63,1.43-.94,2.39-.94.95,0,1.75.32,2.39.96.64.64.96,1.43.96,2.39,0,.97-.32,1.77-.96,2.4s-1.44.94-2.41.94Zm-6.43,6.86v-2.02c0-.37.09-.73.27-1.07.18-.34.42-.59.73-.74.8-.56,1.67-.98,2.6-1.25s1.89-.41,2.86-.41c.95,0,1.9.15,2.83.45.94.3,1.8.7,2.6,1.21.29.2.53.46.73.78.2.31.29.66.29,1.03v2.02H7.09ZM0,11.12v-2.04h7.76v2.04H0ZM0,2.02V0h11.91v2.02H0Zm8.8,4.54H0v-2.02h9.64c-.2.29-.38.6-.52.94s-.25.7-.32,1.07Z"/>
    </symbol>
    <symbol id="user_secured" data-name="user secured" viewBox="0 0 17.69 20">
      <path d="m13.14,15.07c.42,0,.77-.15,1.06-.46.29-.3.43-.67.43-1.08s-.15-.77-.45-1.06c-.3-.29-.65-.43-1.05-.43s-.78.14-1.08.43c-.3.29-.46.64-.46,1.06s.15.78.46,1.08c.3.3.67.46,1.08.46Zm-.02,3.01c.53,0,1.01-.11,1.44-.32.43-.22.8-.53,1.11-.95-.42-.22-.83-.4-1.25-.52s-.85-.18-1.3-.18-.89.06-1.31.18-.84.29-1.24.52c.3.42.67.73,1.1.95.43.22.91.32,1.46.32Zm.05,1.56c-1.25,0-2.32-.45-3.2-1.34-.88-.89-1.32-1.95-1.32-3.16s.44-2.32,1.32-3.21c.88-.89,1.95-1.34,3.2-1.34s2.3.45,3.19,1.34c.89.89,1.34,1.96,1.34,3.21s-.45,2.27-1.34,3.16c-.89.89-1.95,1.34-3.19,1.34Zm-5.13.36c-2.31-.55-4.23-1.85-5.75-3.91S0,11.66,0,9V3.01L8.04,0l8.06,3.01v6.93c-.47-.24-.94-.43-1.42-.58-.48-.14-.99-.22-1.52-.22-1.65,0-3.06.59-4.22,1.76-1.16,1.17-1.74,2.58-1.74,4.24,0,.82.18,1.62.54,2.42.36.79.88,1.47,1.55,2.03-.21.1-.42.17-.64.23s-.42.12-.61.18Z"/>
    </symbol>
    <symbol id="user_setting" data-name="user setting" viewBox="0 0 20 17.25">
      <path d="m14.64,17.25l-.24-1.64c-.26-.06-.51-.17-.77-.31-.26-.14-.47-.31-.65-.48l-1.4.31-.72-1.25,1.18-1.09c-.03-.11-.05-.29-.05-.54s.02-.42.05-.52l-1.18-1.11.72-1.23,1.4.31c.18-.18.39-.34.65-.49.26-.15.51-.26.77-.33l.24-1.64h1.57l.27,1.64c.24.06.49.17.76.33.27.15.49.32.66.49l1.38-.31.72,1.23-1.18,1.11c.05.11.07.29.07.53s-.02.42-.07.53l1.18,1.09-.72,1.25-1.38-.31c-.18.18-.4.34-.66.48s-.52.25-.76.31l-.27,1.64h-1.57Zm-14.64-.89v-2.63c0-.66.17-1.24.52-1.74.35-.5.78-.87,1.31-1.11,1.16-.51,2.26-.89,3.29-1.12,1.04-.23,2.01-.35,2.93-.35h.77c-.48.95-.7,2.15-.66,3.61.04,1.46.4,2.57,1.07,3.34H0Zm15.44-2.24c.55,0,.99-.17,1.33-.52.34-.35.51-.8.51-1.36s-.17-.99-.51-1.33c-.34-.34-.78-.51-1.33-.51s-.99.17-1.34.51c-.35.34-.52.78-.52,1.33,0,.56.17,1.02.52,1.36.35.35.79.52,1.34.52Zm-7.38-6.18c-1.16,0-2.11-.37-2.85-1.11s-1.11-1.69-1.11-2.85.37-2.13,1.11-2.87c.74-.74,1.69-1.11,2.85-1.11s2.11.37,2.86,1.11c.75.74,1.12,1.7,1.12,2.87s-.37,2.11-1.12,2.85c-.75.74-1.7,1.11-2.86,1.11Z"/>
    </symbol>
    <symbol id="visible" viewBox="0 0 20 13.82">
      <path d="m10,10.66c1.04,0,1.93-.36,2.66-1.09.73-.73,1.09-1.62,1.09-2.66s-.36-1.93-1.09-2.66c-.73-.73-1.62-1.09-2.66-1.09s-1.93.36-2.66,1.09c-.73.73-1.09,1.62-1.09,2.66s.36,1.93,1.09,2.66c.73.73,1.62,1.09,2.66,1.09Zm0-1.48c-.63,0-1.17-.22-1.61-.66s-.66-.98-.66-1.61.22-1.17.66-1.61.98-.66,1.61-.66,1.17.22,1.61.66.66.98.66,1.61-.22,1.17-.66,1.61-.98.66-1.61.66Zm0,4.64c-2.22,0-4.22-.64-6-1.92-1.78-1.28-3.11-2.94-4-4.99C.88,4.86,2.21,3.2,4,1.92s3.78-1.92,6-1.92,4.22.64,6,1.92,3.11,2.94,4,4.99c-.88,2.05-2.21,3.71-4,4.99-1.78,1.28-3.78,1.92-6,1.92Z"/>
    </symbol>
  </defs>
</svg>